<svg id="cryingcrowblackcrow_Image" data-name="cryingcrowblackcrow Image" xmlns="http://www.w3.org/2000/svg" viewBox="0 0 196.68 137.57" width="150"><defs><style>.cls-1{fill:#1b1417;}</style></defs><title>cryingcrowblackcrow</title><path className="cls-1" d="M298.42,199.38l-26.11-3.52-.09.39c1.84.9,3.66,1.83,5.52,2.7,3.9,1.84,7.85,3.58,11.72,5.5,2,1,3.93,2.29,5.88,3.45a24.37,24.37,0,0,1,3,1.77,3.54,3.54,0,0,1-.5,5.48,1.91,1.91,0,0,0-1.07,2.37c.38,1.87.29,1.88-1.58,2.45a18.13,18.13,0,0,0-3.06,1.35,2.24,2.24,0,0,1-2.25.11c-8.15-4-16.37-7.81-24.2-12.42-5.85-3.45-11.9-6.56-17.93-9.7a13.45,13.45,0,0,0-3.7-.77c-3-.55-6-1-8.92-1.65-2.37-.5-4.71-1.16-7.24-1.79,0,.52.06,1,.12,1.41.22,1.43-.19,2.05-1.55,2.43-.68.19-1.33.52-2,.64a2.24,2.24,0,0,1-1.35-.19,9.11,9.11,0,0,0-4.37-1.33c-1,0-2-.95-2.84-1.62-1.52-1.16-2-1.42-3.26.8-.52.9-.85,1.91-1.41,2.77-1,1.57-2.11,3.12-3.29,4.58a1.28,1.28,0,0,1-2.2-.55,1.7,1.7,0,0,0-1.93-1.4,4.5,4.5,0,0,0-2.19,1.6c-.92,1.12-1.61,2.41-2.43,3.61-.11.16-.4.22-.61.3a6.93,6.93,0,0,0-4.76,4.64,1,1,0,0,1-.6.5c-.94.26-1.13.88-1.18,1.8a4.78,4.78,0,0,0,2.84,5c2.16,1.08,4.15,2.5,6.22,3.77a9.62,9.62,0,0,0,1,.46c2.1,1,3.36,4.37,2.31,6.47a1.8,1.8,0,0,1-1.26.92,1.83,1.83,0,0,1-1.42-.81,4,4,0,0,0-2.69-2.35.85.85,0,0,1-.42-.22c-1-1.43-2.56-1.14-4-1.32a37.06,37.06,0,0,1-5.78-.94c-1.1-.31-2.11-.89-3.3-.74-2.16.27-4.32.65-6.49.86a7.48,7.48,0,0,0-4.41,1.62c-.32.27-1,.11-1.52.16l-5.57.48a.68.68,0,0,0-.35.1c-1.6,1.34-3.17.9-5,.39-1.58-.43-3.45.16-5.18.34-1.57.17-3.14.39-5,.62a9.22,9.22,0,0,1,3.66-3.85,21.2,21.2,0,0,1,7.37-2.2,12,12,0,0,0,3.12-1.38,37,37,0,0,1,4.73-2.15,12.39,12.39,0,0,0,4.36-1.92c1.27-1,2.23-2.48,4-2.76.32,0,.55-.55.85-.8s.84-.62,1.26-.94l1.37-1.1,3.14-2.5c.43-.33.91-.61,1.31-1,1.2-1.09,2.36-2.21,3.37-3.16-2.81-2.46-5.58-4.92-8.4-7.3a7.42,7.42,0,0,0-2.45-1.41,20.47,20.47,0,0,1-4.57-1.85c-3.46-2.09-7.52-2.5-11.31-3.71-3-1-5.84-2.36-8.75-3.58a6,6,0,0,0-1-.44c-2.79-.57-4.47-2.42-5.81-4.78a91.67,91.67,0,0,0-5.27-8.66,19.81,19.81,0,0,1-3.41-9.39c-.23-1.69-.8-3.32-.39-5.06a1.71,1.71,0,0,0-.13-.82c-1.79-5.67-3.66-11.31-5.34-17a51.13,51.13,0,0,1-1.06-6.34,13.43,13.43,0,0,1-.29-1.64,10.39,10.39,0,0,1,.13-2.09,5.23,5.23,0,0,1,.47-1.36c1.33-3,.7-5.63-1-8.21-2-2.87-3.64-5.93-5.81-8.62-1.14-1.42-3-2.2-4.6-3.28-2.43-1.7-5.36-1.29-8-1.94-1.71-.41-3.42-.8-5.15-1.12a24.37,24.37,0,0,0-2.43-.21c-.39,0-.76-.15-1.11-.22a4.14,4.14,0,0,1,2.6-3.23c2.81-1.47,5.67-2.75,8.93-2.8a11.52,11.52,0,0,0,1.63-.34c2.4-.38,4.8-.74,7.19-1.13.38-.06.92-.1,1.09-.35,1.68-2.42,4.48-2.94,6.86-4.17a9.6,9.6,0,0,1,6.43-.71c4.24,1,8.45,2.12,12.27,4.56a28.42,28.42,0,0,1,9.8,10.75c1.38,2.55,2.59,5.21,3.95,7.78A88.46,88.46,0,0,0,170.2,126a8,8,0,0,0,3.77,2.76c3.59,1.3,7.38,2.07,10.95,3.41a42.94,42.94,0,0,1,12.33,6.78c3.17,2.61,6.22,5.4,9.57,7.76,3.68,2.58,7.64,4.76,11.48,7.12,1.53.94,3.11,1.82,4.56,2.86.62.44.95,1.27,1.48,1.86.31.34.75.8,1.14.81,3,.09,5.48,1.51,8.1,2.63a33.38,33.38,0,0,1,4.78,2.19c3.17,2,7.18,2.66,9.57,5.91.2.27.6.39.89.61.66.51,1.57.91,1.91,1.59.86,1.75,2.41,2.48,4,3.16a48.37,48.37,0,0,1,9.36,5.5,54.55,54.55,0,0,0,7.31,3.94c1.64.82,3.18,1.65,3.76,3.59a1.73,1.73,0,0,0,1,.86c3.76,1.3,7.53,2.56,11.31,3.82a38.13,38.13,0,0,0,4.38,1.35,14.23,14.23,0,0,1,5.92,2.74c.46.35.57,1.17.83,1.78Z" transform="translate(-102.7 -94.16)"/><path className="cls-1" d="M116.26,121.82c0,1.33.06,2.63,0,3.92q-.15,3.15-.45,6.28c-.22,2.38-1,3.07-3.41,3.6a2.61,2.61,0,0,1-2.89-1.22,2.8,2.8,0,0,1-.08-3.27C111.62,128,114,124.94,116.26,121.82Z" transform="translate(-102.7 -94.16)"/><path className="cls-1" d="M107.17,143.09c.14,2.48.31,5,.39,7.46a2.17,2.17,0,0,1-1.77,2.14,2.3,2.3,0,0,1-2.71-.65,2.34,2.34,0,0,1,.18-2.78c1.26-2.06,2.45-4.15,3.68-6.23Z" transform="translate(-102.7 -94.16)"/></svg>